<svg xmlns="http://www.w3.org/2000/svg" width="200" height="38" viewBox="0 0 200 38" fill="none"><path fill-rule="evenodd" clip-rule="evenodd" d="M7.03245 15.8523V12.1423H0V36.5561H7.03245V22.299C7.03245 20.9832 7.8165 19.8116 8.53446 19.1177C11.1149 16.6424 17.3783 17.5165 17.3783 22.6895V36.5561H24.4108V22.6895C24.4108 16.1527 34.7597 16.1527 34.7597 22.6895V36.5561H41.7561L41.8072 22.8847C41.8072 16.7926 38.8031 11.9471 32.8221 11.9471C29.019 11.9471 27.4329 12.3676 24.7623 15.0202C24.4877 15.2685 24.2428 15.5477 24.0323 15.8523C23.7319 16.2999 23.6958 16.5042 23.2542 16.8286C19.8507 10.43 11.4604 10.9677 8.29114 14.3833C7.86156 14.8459 7.45602 15.5429 7.03245 15.8523Z" fill="#0071E3"></path><path fill-rule="evenodd" clip-rule="evenodd" d="M80.2798 22.299H90.7729C90.7428 15.7381 80.2798 15.2665 80.2798 22.299ZM73.2473 22.8998V25.8287H90.8239C90.8239 32.2183 83.5331 33.0894 81.4513 29.1331H74.0284C74.1816 30.9926 76.5067 33.7263 77.7353 34.6065C85.2064 39.9537 97.6581 36.0484 97.6581 25.4231C97.6581 21.0042 97.2886 18.0663 94.0983 14.909C90.0849 10.9497 81.98 10.4721 76.8702 14.7768C75.1188 16.2668 73.2473 19.7455 73.2473 22.8847V22.8998Z" fill="#0071E3"></path><path fill-rule="evenodd" clip-rule="evenodd" d="M102.981 12.1423H99.8572V17.8079H102.987V29.3284C102.987 33.8345 106.175 36.5561 110.41 36.5561H114.916V30.8905C108.656 30.8905 109.84 30.9476 109.84 17.8079H114.928V12.1423H109.852V5.89392H102.984L102.981 12.1423Z" fill="#0071E3"></path><path d="M196.872 24.543C196.919 22.7509 196.52 20.9754 195.71 19.376C194.987 17.9902 193.879 16.8427 192.52 16.0716C191.121 15.2957 189.543 14.901 187.944 14.927C186.362 14.9165 184.806 15.3315 183.438 16.1287C182.064 16.9321 180.944 18.1065 180.206 19.5172C179.382 21.0913 178.969 22.8478 179.004 24.6241C178.969 26.4004 179.382 28.1569 180.206 29.7309C180.944 31.1416 182.064 32.316 183.438 33.1195C184.806 33.9166 186.362 34.3317 187.944 34.3211C189.546 34.3475 191.126 33.9451 192.52 33.1555C193.887 32.3585 194.995 31.1827 195.71 29.77C196.513 28.1672 196.912 26.3924 196.872 24.6V24.543ZM179.016 17.904C179.823 16.2175 181.099 14.7992 182.69 13.8186C184.453 12.7343 186.492 12.1843 188.56 12.2354C190.624 12.1957 192.661 12.7146 194.454 13.7375C196.193 14.758 197.605 16.2534 198.525 18.0482C199.541 20.0564 200.046 22.2839 199.997 24.534C200.045 26.7915 199.54 29.0266 198.525 31.0437C197.604 32.8557 196.184 34.367 194.433 35.3995C192.652 36.4388 190.622 36.9746 188.56 36.9496C186.275 36.9496 184.304 36.4289 182.645 35.3875C181.057 34.424 179.793 33.0075 179.016 31.3201V36.5982H175.982V4.04944H179.016V17.904Z" fill="#0071E3"></path><path d="M168.947 12.5809V36.5952H165.868V32.3715C165.188 33.8412 164.044 35.0466 162.611 35.8021C161.098 36.6115 159.404 37.0249 157.688 37.0037C154.814 37.0037 152.468 36.1165 150.649 34.3421C148.831 32.5678 147.922 29.9943 147.922 26.6218V12.5809H150.959V26.2583C150.959 28.8618 151.611 30.8555 152.914 32.2393C154.218 33.6232 155.999 34.3131 158.259 34.3091C160.574 34.3091 162.421 33.5761 163.801 32.1101C165.181 30.6442 165.87 28.4883 165.868 25.6424V12.5809H168.947Z" fill="#0071E3"></path><path d="M131.739 12.1423C133.442 12.1159 135.126 12.5079 136.642 13.2838C138.116 14.0703 139.314 15.291 140.072 16.7805C140.907 18.3486 141.325 20.2622 141.325 22.5213V36.5952H138.291V22.8727C138.291 20.2692 137.639 18.2755 136.335 16.8917C135.032 15.5078 133.25 14.8189 130.991 14.8249C128.674 14.8249 126.826 15.5579 125.449 17.0239C124.071 18.4898 123.382 20.6447 123.382 23.4886V36.5952H120.303V4.04944H123.382V16.6664C124.137 15.2352 125.311 14.0687 126.746 13.3229C128.285 12.5168 130.002 12.1088 131.739 12.1363" fill="#0071E3"></path><path fill-rule="evenodd" clip-rule="evenodd" d="M63.1628 22.299H52.6667C52.6997 15.7381 63.1628 15.2665 63.1628 22.299ZM70.1952 22.8998V25.8287H52.6186C52.6186 32.2183 59.9094 33.0894 61.9912 29.1331H69.4142C69.261 30.9926 66.9358 33.7263 65.7072 34.6065C58.2361 39.9537 45.7844 36.0484 45.7844 25.4231C45.7844 21.0042 46.1539 18.0663 49.3442 14.909C53.3576 10.9497 61.4625 10.4721 66.5723 14.7768C68.3237 16.2668 70.1952 19.7455 70.1952 22.8847V22.8998Z" fill="#0071E3"></path><path fill-rule="evenodd" clip-rule="evenodd" d="M85.4528 0C86.322 0 87.1717 0.257757 87.8944 0.740675C88.6172 1.22359 89.1805 1.90998 89.5131 2.71305C89.8458 3.51611 89.9328 4.39978 89.7632 5.25231C89.5937 6.10483 89.1751 6.88793 88.5604 7.50257C87.9458 8.11721 87.1627 8.53578 86.3102 8.70536C85.4576 8.87494 84.574 8.78791 83.7709 8.45527C82.9678 8.12263 82.2815 7.55932 81.7985 6.83658C81.3156 6.11384 81.0579 5.26413 81.0579 4.3949C81.0579 3.2293 81.5209 2.11144 82.3451 1.28724C83.1693 0.463033 84.2872 0 85.4528 0" fill="#0071E3"></path><path fill-rule="evenodd" clip-rule="evenodd" d="M57.9779 0C58.8471 0 59.6969 0.257757 60.4196 0.740675C61.1423 1.22359 61.7056 1.90998 62.0383 2.71305C62.3709 3.51611 62.458 4.39978 62.2884 5.25231C62.1188 6.10483 61.7002 6.88793 61.0856 7.50257C60.4709 8.11721 59.6878 8.53578 58.8353 8.70536C57.9828 8.87494 57.0991 8.78791 56.2961 8.45527C55.493 8.12263 54.8066 7.55932 54.3237 6.83658C53.8408 6.11384 53.583 5.26413 53.583 4.3949C53.583 3.2293 54.046 2.11144 54.8702 1.28724C55.6945 0.463033 56.8123 0 57.9779 0" fill="#0071E3"></path></svg>